<svg xmlns="http://www.w3.org/2000/svg" style="display:none">
<symbol id="icon-astronaut" viewBox="0 0 64 64">

  <path fill="#4d5ae5" d="M63.948 9.048a1.07 1.07 0 0 0-.86-.725l-3.822-.556-1.71-3.462c-.358-.73-1.553-.73-1.912 0l-1.71 3.462-3.82.556a1.067 1.067 0 0 0-.592 1.819l2.765 2.695-.653 3.806a1.069 1.069 0 0 0 1.548 1.124L56.6 15.97l3.417 1.797a1.068 1.068 0 0 0 1.548-1.124l-.652-3.806 2.766-2.695a1.07 1.07 0 0 0 .27-1.094m-4.926 2.654c-.25.244-.366.598-.306.944l.382 2.228-2.001-1.051a1.06 1.06 0 0 0-.994 0l-2.001 1.051.381-2.228a1.07 1.07 0 0 0-.306-.944l-1.62-1.579 2.238-.325c.348-.05.648-.269.803-.584l1-2.026L57.6 9.214c.156.315.456.534.804.584l2.237.325zm-6.756 29.342h-2.134v2.134h2.134zm0 4.267h-2.134v2.134h2.134zm2.133-2.133h-2.133v2.133H54.4zm-4.266 0H48v2.133h2.133zm-5.334 9.6h-2.133v2.133H44.8zm0 4.267h-2.133v2.133H44.8zm2.134-2.134H44.8v2.134h2.134zm-4.267 0h-2.134v2.134h2.134zM32 48.511h-2.133v2.134H32zm0 4.267h-2.133v2.133H32zm2.133-2.133H32v2.133h2.133zm-4.266 0h-2.134v2.133h2.134zM11.733 12.244H9.6v2.133h2.133zm0 4.266H9.6v2.134h2.133zm2.133-2.133h-2.133v2.134h2.133zm-4.266 0H7.466v2.134H9.6z"/>
  <path fill="#2e2f42" d="M49.43 28.319a3.55 3.55 0 0 0-2.377-1.41 3.55 3.55 0 0 0-2.68.705l-2.503 1.919h-.001l-3.796 2.835-2.715-1.082c4.842-2.173 8.227-7.016 8.227-12.64C43.585 11 37.34 4.78 29.663 4.78S15.74 11 15.74 18.646c0 2.771.828 5.348 2.24 7.517l-5.528-.048h-.01c-.017 0-.03.009-.047.01q-.158.007-.31.061c-.026.01-.052.015-.077.027-.013.005-.025.006-.038.013l-6.466 3.192-.002.001-3.787 1.822a1 1 0 0 0-.126.07A3.56 3.56 0 0 0 .393 35.9a3.55 3.55 0 0 0 2.112 1.779 3.56 3.56 0 0 0 2.757-.257l2.776-1.476 4.528-2.339 2.714-.015-10.884 10.83q0 .002-.003.003l-2.677 2.666a3.3 3.3 0 0 0-.98 2.356 3.33 3.33 0 0 0 3.338 3.327c.856 0 1.709-.323 2.36-.97l2.629-2.617 3.481-2.6 1.802 1.794-3.523 3.508-.003.002-2.678 2.669a3.3 3.3 0 0 0-.98 2.355c0 .89.348 1.727.98 2.358.65.646 1.505.97 2.36.97a3.34 3.34 0 0 0 2.36-.97l6.964-6.933q0-.003.002-.004l2.019-2-.008-.007c.013-.013.031-.017.044-.031L32.215 38.98l6.942.988q.075.011.15.01c.13 0 .254-.03.375-.076q.05-.02.1-.047c.038-.019.078-.03.114-.054l6.427-4.267c.024-.016.036-.041.059-.059.025-.02.057-.028.08-.05l2.544-2.383a3.56 3.56 0 0 0 .423-4.723M4.26 35.54c-.346.186-.74.223-1.116.104a1.43 1.43 0 0 1-.425-2.52l2.628-1.264.898 2.625zm6.995-3.655-3.097 1.6-.877-2.567 4.053-2zm30.199-13.241c0 1.837-.438 3.57-1.198 5.119l-8.363-3.799a3.72 3.72 0 0 0-1.576-2.775l2.928-9.72C38 8.98 41.454 13.416 41.454 18.643m-23.578 0c0-6.47 5.289-11.734 11.789-11.734.506 0 1 .043 1.49.105l-2.864 9.507c-.038 0-.075-.011-.114-.011a3.743 3.743 0 0 0-3.745 3.733 3.744 3.744 0 0 0 3.745 3.733 3.73 3.73 0 0 0 3.236-1.889l7.725 3.51c-2.15 2.893-5.59 4.78-9.473 4.78-6.5 0-11.789-5.265-11.789-11.734m11.913 1.6c0 .882-.724 1.6-1.612 1.6a1.61 1.61 0 0 1-1.612-1.6c0-.882.723-1.6 1.612-1.6.888 0 1.612.718 1.612 1.6M4.929 50.292a1.217 1.217 0 0 1-1.708.002 1.19 1.19 0 0 1 0-1.689l1.924-1.917 1.702 1.695zm6.428 7.467a1.216 1.216 0 0 1-1.71.002 1.19 1.19 0 0 1 0-1.689l1.926-1.918 1.703 1.695zm6.964-6.937-.004.002-3.53 3.52-1.703-1.695 3.527-3.51v-.002l.003-.002c.08-.08.13-.176.18-.27.013-.028.04-.052.052-.08.033-.083.038-.171.05-.258.007-.049.028-.095.028-.145 0-.071-.025-.14-.04-.211-.013-.064-.013-.13-.037-.191-.04-.1-.11-.189-.183-.275-.02-.024-.027-.054-.05-.076h-.001l-.002-.004-3.214-3.2c-.034-.034-.078-.048-.116-.077a1 1 0 0 0-.174-.115 1 1 0 0 0-.187-.066 1 1 0 0 0-.206-.039 1 1 0 0 0-.19.01 1 1 0 0 0-.209.04 1 1 0 0 0-.188.09c-.04.022-.085.03-.122.057l-3.547 2.648-1.801-1.794 4.798-4.773 8.72 8.578zm13.637-14.034c-.03-.004-.06.008-.09.006a1.1 1.1 0 0 0-.406.056 1 1 0 0 0-.194.094q-.089.053-.166.123c-.026.022-.057.033-.08.058l-9.397 10.292-8.656-8.514 5.666-5.636a1.068 1.068 0 0 0-.759-1.822l-4.437.026.055-3.215 6.208.053a13.9 13.9 0 0 0 9.963 4.202c.875 0 1.728-.09 2.559-.245.08.064.159.129.26.17l4.818 1.92.662 3.287zm8.083.357-.626-3.116 2.892-2.16 1.894 2.513zm7.507-5.662-1.676 1.57-1.862-2.473 1.663-1.274a1.454 1.454 0 0 1 2.045.282c.434.584.36 1.398-.17 1.895"/>
  <path fill="#2e2f42" d="m27.204 37.088-4.286-4.267a1.066 1.066 0 0 0-1.505 0l-4.285 4.267a1.07 1.07 0 0 0 0 1.513l4.285 4.266a1.066 1.066 0 0 0 1.505 0l4.286-4.266a1.067 1.067 0 0 0 0-1.513m-5.038 3.518-2.773-2.762 2.773-2.761 2.775 2.761zm12.163-30.464-.516 2.071c.142.035 3.475.904 3.475 4.298h2.134c0-4.034-3.331-5.931-5.093-6.37m5.093 8.503h-2.133v2.134h2.133z"/>

</symbol>
<symbol id="icon-antena" viewBox="0 0 64 64">

  <path fill="#2e2f42" d="M61.546 44.195 44.66 27.185l1.874-9.23c.484.188.998.287 1.517.29h.013a4.318 4.318 0 1 0-4.017-2.87l-9.92 1.21L17.945.32a1.07 1.07 0 0 0-.753-.32c-.28.001-.548.113-.747.31L13.42 3.318a1.067 1.067 0 0 0 0 1.509l1.628 1.65a29.885 29.885 0 0 0 5.04 35.327q.127.122.291.195a6 6 0 0 0-.104 1.094v12.374h-12.8A5.34 5.34 0 0 0 2.14 60.8v2.133c0 .59.478 1.067 1.067 1.067h49.067c.589 0 1.067-.478 1.067-1.067V60.8a5.34 5.34 0 0 0-5.334-5.333h-12.8v-5.484c2.005.42 4.048.635 6.097.64a29.7 29.7 0 0 0 14.08-3.567l1.637 1.646c.198.202.469.318.753.32.28-.002.548-.113.746-.31l3.025-3.009a1.067 1.067 0 0 0 0-1.508M46.56 12.466a2.133 2.133 0 1 1 1.503 3.646h-.006a2.133 2.133 0 0 1-1.493-3.646zm-2.511 7.01-1.197 5.89-2.351-2.364zm-1.212-1.804-3.84 3.817-2.97-2.987zM48.008 57.6a3.2 3.2 0 0 1 3.2 3.2v1.067H4.275V60.8a3.2 3.2 0 0 1 3.2-3.2zm-14.933-4.267v2.134H22.408v-2.134zM22.408 51.2v-8.107c0-2.587 2.393-4.693 5.333-4.693s5.334 2.106 5.334 4.693V51.2zm12.8-3.392v-4.715c0-3.764-3.35-6.826-7.466-6.826a7.6 7.6 0 0 0-6.563 3.572 27.74 27.74 0 0 1-4.557-31.774l37.204 37.417a27.64 27.64 0 0 1-18.618 2.326m22.578-1.367L17.182 5.59l-1.51-1.512 1.51-1.504 15.87 15.96c.007 0 .011.013.019.019L59.3 44.937z"/>
  <path fill="#4d5ae5" d="M27.751 40.533h-.01a3.2 3.2 0 0 0-.01 6.4h.01a3.2 3.2 0 1 0 .01-6.4m.747 3.957a1.067 1.067 0 1 1-.757-1.823 1.067 1.067 0 0 1 .747 1.823z"/>

</symbol>
<symbol id="icon-clock" viewBox="0 0 64 64">

  <path fill="#2e2f42" d="M62.593 30.603C62.59 13.697 48.883-.004 31.978 0S1.372 13.71 1.375 30.616a30.61 30.61 0 0 0 21.299 29.152c.12.038.247.058.373.057.242 0 .478-.065.685-.187.27-.16.472-.414.567-.713l7.73-24.5a3.826 3.826 0 1 0-1.68-7.27L20.137 16.942a1.275 1.275 0 0 0-1.803 1.804l10.207 10.218a3.75 3.75 0 0 0 1.072 4.618l-7.365 23.346C7.692 51.566.24 35.42 5.601 20.864 10.963 6.31 27.11-1.145 41.665 4.217s22.008 21.509 16.647 36.064a28.1 28.1 0 0 1-14.925 15.947l-.796-3.749a1.275 1.275 0 0 0-2.096-.687l-7.674 6.851a1.275 1.275 0 0 0 .462 2.169l9.797 3.127a1.275 1.275 0 0 0 1.638-1.48l-.782-3.678a30.51 30.51 0 0 0 18.657-28.178m-30.609-1.276a1.276 1.276 0 1 1 0 2.552 1.276 1.276 0 0 1 0-2.552m4.201 29.728 4.368-3.896 1.206 5.68z"/>
  <path fill="#4d5ae5" d="M30.709 6.37v2.55a1.275 1.275 0 1 0 2.55 0V6.37a1.276 1.276 0 0 0-2.55 0M7.752 29.327a1.275 1.275 0 0 0 0 2.55h2.55a1.275 1.275 0 1 0 0-2.55zm48.464 2.551a1.275 1.275 0 1 0 0-2.55h-2.55a1.276 1.276 0 0 0 0 2.55z"/>

</symbol>
<symbol id="icon-diagram" viewBox="0 0 64 64">

  <g clip-path="url(#a)">
    <path fill="#4d5ae5" d="M29.851 29.93h2.132v9.594h-2.132zm8.529 4.264h2.132v5.33H38.38zm-17.058 3.198h2.132v2.132h-2.132zm-6.396-1.066h2.132v3.198h-2.133z"/>
    <path fill="#2e2f42" d="M3.198 56.582h51.174a3.2 3.2 0 0 0 3.198-3.198v-4.265a3.2 3.2 0 0 0-3.199-3.198h-1.066V19.334l6.056-5.736a3.216 3.216 0 1 0-1.493-1.526l-4.563 4.325v-2.46a3.2 3.2 0 0 0-3.198-3.198H7.463a3.2 3.2 0 0 0-3.199 3.199V45.92H3.198A3.2 3.2 0 0 0 0 49.119v4.265a3.2 3.2 0 0 0 3.198 3.198m57.57-46.909a1.066 1.066 0 1 1 0 2.133 1.066 1.066 0 0 1 0-2.133M6.397 13.938c0-.59.477-1.067 1.066-1.067h42.644c.589 0 1.066.478 1.066 1.067v4.477l-2.132 2.026V16.07c0-.589-.477-1.066-1.066-1.066H9.595c-.589 0-1.066.477-1.066 1.066v26.652c0 .59.477 1.067 1.066 1.067h38.38c.589 0 1.066-.478 1.066-1.067V23.374l2.132-2.02V45.92H6.397zm9.595 13.859a3.198 3.198 0 1 0 2.214 5.497l3.706 1.859c.43.215.953.115 1.273-.245l7.877-8.863 7.744 5.803c.416.311.996.278 1.372-.079l6.73-6.375v16.262H10.662v-24.52H46.91v5.32L39.366 29.6l-7.81-5.855a1.067 1.067 0 0 0-1.435.145l-7.986 8.985-2.986-1.493q.033-.192.041-.387a3.2 3.2 0 0 0-3.198-3.198m1.066 3.198a1.066 1.066 0 1 1-2.132 0 1.066 1.066 0 0 1 2.132 0m6.396 17.058h10.661v1.066c0 .589-.477 1.066-1.066 1.066H24.52a1.066 1.066 0 0 1-1.066-1.066zM2.132 49.12c0-.589.478-1.066 1.066-1.066h18.124v1.066a3.2 3.2 0 0 0 3.198 3.199h8.53a3.2 3.2 0 0 0 3.198-3.199v-1.066h18.124c.588 0 1.066.477 1.066 1.066v4.265c0 .588-.478 1.066-1.067 1.066H3.198a1.066 1.066 0 0 1-1.066-1.066z"/>
  </g>
  <defs>
    <clipPath id="a">
      <path fill="#fff" d="M0 0h64v64H0z"/>
    </clipPath>
  </defs>

</symbol>
<symbol id="icon-facebook" viewBox="0 0 24 24">

  <path fill="#f4f4fd" d="M15.997 3.985h2.191V.169C17.81.117 16.51 0 14.996 0c-3.159 0-5.323 1.987-5.323 5.639V9H6.187v4.266h3.486V24h4.274V13.267h3.345l.531-4.266h-3.877V6.062c.001-1.233.333-2.077 2.051-2.077"/>

</symbol>
<symbol id="icon-twitter" viewBox="0 0 24 24">

  <path fill="#f4f4fd" d="M17.75 3h3.067l-6.7 7.625L22 21h-6.171l-4.834-6.294L5.464 21H2.395l7.166-8.156L2 3h6.329l4.368 5.751zm-1.075 16.173h1.7L7.404 4.732H5.58z"/>

</symbol>
<symbol id="icon-instagram" viewBox="0 0 24 24">

  <g fill="#f4f4fd" clip-path="url(#a)">
    <path d="M23.977 7.056c-.057-1.275-.263-2.152-.558-2.912a5.9 5.9 0 0 0-1.388-2.128A5.9 5.9 0 0 0 19.907.633C19.143.338 18.27.13 16.996.075 15.71.015 15.303 0 12.045 0c-3.26 0-3.667.014-4.948.07-1.274.057-2.151.263-2.91.558a5.9 5.9 0 0 0-2.129 1.388A5.9 5.9 0 0 0 .675 4.14C.38 4.904.173 5.776.117 7.05.057 8.336.042 8.744.042 12.002s.014 3.667.07 4.947C.17 18.224.375 19.1.67 19.86a5.9 5.9 0 0 0 1.388 2.129 5.9 5.9 0 0 0 2.124 1.383c.764.295 1.636.501 2.912.558 1.28.056 1.687.07 4.946.07s3.666-.014 4.946-.07c1.275-.057 2.152-.263 2.912-.558a6.14 6.14 0 0 0 3.511-3.512c.296-.764.502-1.636.558-2.911.056-1.28.07-1.688.07-4.947 0-3.258-.004-3.666-.06-4.946m-2.162 9.799c-.051 1.172-.248 1.805-.412 2.227a3.98 3.98 0 0 1-2.279 2.278c-.422.165-1.06.361-2.227.413-1.266.056-1.646.07-4.848.07s-3.586-.014-4.848-.07c-1.172-.052-1.805-.248-2.227-.413a3.7 3.7 0 0 1-1.378-.895 3.7 3.7 0 0 1-.896-1.378c-.164-.422-.36-1.06-.412-2.227-.056-1.266-.07-1.646-.07-4.848s.014-3.587.07-4.848c.051-1.172.248-1.805.412-2.227.193-.52.497-.994.9-1.379a3.7 3.7 0 0 1 1.38-.895c.421-.164 1.059-.36 2.226-.413 1.266-.056 1.646-.07 4.848-.07 3.207 0 3.586.014 4.848.07 1.172.052 1.805.249 2.227.413.52.192.994.497 1.378.895.399.39.703.858.896 1.379.164.422.36 1.06.412 2.227.056 1.266.07 1.645.07 4.848s-.014 3.577-.07 4.843"/>
    <path d="M12.045 5.837a6.167 6.167 0 0 0-6.166 6.165 6.167 6.167 0 0 0 6.166 6.166 6.167 6.167 0 0 0 6.165-6.166 6.167 6.167 0 0 0-6.166-6.165m0 10.165a4 4 0 1 1 0-8 4 4 0 0 1 0 8m7.849-10.409a1.44 1.44 0 1 1-2.879 0 1.44 1.44 0 0 1 2.879 0"/>
  </g>
  <defs>
    <clipPath id="a">
      <path fill="#fff" d="M0 0h24v24H0z"/>
    </clipPath>
  </defs>

</symbol>
<symbol id="icon-linkedin" viewBox="0 0 24 24">

  <g fill="#f4f4fd" clip-path="url(#a)">
    <path d="M23.994 24H24v-8.803c0-4.306-.927-7.623-5.961-7.623-2.42 0-4.044 1.328-4.707 2.587h-.07V7.976H8.489V24h4.97v-7.934c0-2.089.396-4.109 2.983-4.109 2.549 0 2.587 2.384 2.587 4.243V24zM.396 7.977h4.976V24H.396zM2.882 0A2.883 2.883 0 0 0 0 2.882c0 1.591 1.291 2.909 2.882 2.909s2.882-1.318 2.882-2.909A2.884 2.884 0 0 0 2.882 0"/>
  </g>
  <defs>
    <clipPath id="a">
      <path fill="#fff" d="M0 0h24v24H0z"/>
    </clipPath>
  </defs>

</symbol>
</svg>